<?xml version="1.0" encoding="UTF-8" standalone="no"?>
<!-- Created with Inkscape (http://www.inkscape.org/) -->

<svg
   xmlns:dc="http://purl.org/dc/elements/1.1/"
   xmlns:cc="http://creativecommons.org/ns#"
   xmlns:rdf="http://www.w3.org/1999/02/22-rdf-syntax-ns#"
   xmlns:svg="http://www.w3.org/2000/svg"
   xmlns="http://www.w3.org/2000/svg"
   xmlns:sodipodi="http://sodipodi.sourceforge.net/DTD/sodipodi-0.dtd"
   xmlns:inkscape="http://www.inkscape.org/namespaces/inkscape"
   width="210mm"
   height="297mm"
   viewBox="0 0 210 297"
   version="1.1"
   id="svg8"
   inkscape:version="0.92.3 (2405546, 2018-03-11)"
   sodipodi:docname="Guía_Cavity.svg">
  <defs
     id="defs2" />
  <sodipodi:namedview
     id="base"
     pagecolor="#ffffff"
     bordercolor="#666666"
     borderopacity="1.0"
     inkscape:pageopacity="0.0"
     inkscape:pageshadow="2"
     inkscape:zoom="0.7"
     inkscape:cx="484.67241"
     inkscape:cy="734.9526"
     inkscape:document-units="mm"
     inkscape:current-layer="layer1"
     showgrid="false"
     inkscape:window-width="1240"
     inkscape:window-height="736"
     inkscape:window-x="69"
     inkscape:window-y="0"
     inkscape:window-maximized="1" />
  <metadata
     id="metadata5">
    <rdf:RDF>
      <cc:Work
         rdf:about="">
        <dc:format>image/svg+xml</dc:format>
        <dc:type
           rdf:resource="http://purl.org/dc/dcmitype/StillImage" />
        <dc:title></dc:title>
      </cc:Work>
    </rdf:RDF>
  </metadata>
  <g
     inkscape:label="Capa 1"
     inkscape:groupmode="layer"
     id="layer1">
    <g
       id="g4571"
       transform="matrix(0.47509891,0,0,0.58579868,81.060372,4.3130837)">
      <rect
         y="123.13095"
         x="3.7797627"
         height="114.90475"
         width="166.30952"
         id="rect3715"
         style="opacity:1;fill:none;fill-opacity:1;stroke:#000000;stroke-width:1;stroke-linejoin:round;stroke-miterlimit:4;stroke-dasharray:none;stroke-opacity:1" />
      <rect
         y="113.30358"
         x="18.520834"
         height="114.90475"
         width="166.30952"
         id="rect3715-3"
         style="opacity:1;fill:none;fill-opacity:1;stroke:#000000;stroke-width:1;stroke-linejoin:round;stroke-miterlimit:4;stroke-dasharray:none;stroke-opacity:1" />
      <path
         inkscape:connector-curvature="0"
         d="m 20.936691,113.16249 c -1.469381,1.10068 -2.777707,2.4014 -4.09808,3.67258 -1.364556,1.34778 -2.900493,2.50101 -4.445672,3.63038 -2.4983673,2.00037 -4.6200208,3.0449 -7.6419199,4.76388 -0.7152539,0.25225 -1.4762069,0.30415 -2.228452,0.31184 -0.094385,0.001 -0.1887705,0.002 -0.2831557,0.003 0,0 4.5029458,-3.28163 4.5029458,-3.28163 v 0 c 0.088401,-0.002 0.1768019,-0.003 0.2652032,-0.005 0.7047473,-0.0434 1.4074338,-0.13231 2.0432572,-0.4649 -8.50539634,4.96218 -3.4333428,2.15083 -1.6663022,0.65087 1.5930214,-1.1165 3.1771616,-2.26397 4.5914916,-3.60416 1.245959,-1.21407 2.489752,-2.43137 3.767269,-3.61229 0,0 5.193415,-2.06535 5.193415,-2.06535 z"
         id="path4537"
         style="opacity:1;fill:none;fill-opacity:1;stroke:#000000;stroke-width:1;stroke-linejoin:round;stroke-miterlimit:4;stroke-dasharray:none;stroke-opacity:1" />
      <path
         inkscape:connector-curvature="0"
         d="m 181.99901,116.16911 c 0.35881,-0.2736 -1.77378,0.81095 -1.3351,0.55329 8.66671,-5.09039 4.06252,-2.35477 2.95726,-1.6346 -0.34666,0.22588 -0.68633,0.46232 -1.0295,0.69347 -2.19146,1.60156 -4.552,2.94 -6.89246,4.30556 -1.48475,0.89708 -2.95748,1.82897 -4.34526,2.87192 -0.43969,0.37973 -0.92652,0.69517 -1.40845,1.01682 0,0 -5.13879,2.02085 -5.13879,2.02085 v 0 c 0.4867,-0.34873 1.0112,-0.63557 1.47987,-1.00875 1.40928,-1.15703 3.03005,-2.04881 4.55831,-3.03451 2.32616,-1.36155 4.70777,-2.64256 6.87377,-4.25746 2.72713,-1.91081 5.51226,-3.96809 8.73497,-4.89938 0,0 -4.45462,3.37279 -4.45462,3.37279 z"
         id="path4539"
         style="opacity:1;fill:none;fill-opacity:1;stroke:#000000;stroke-width:1;stroke-linejoin:round;stroke-miterlimit:4;stroke-dasharray:none;stroke-opacity:1" />
      <path
         inkscape:connector-curvature="0"
         d="m 180.11432,229.85564 c -0.68608,-0.0897 -1.2842,0.20478 -1.87625,0.51128 -0.22459,0.11627 -0.88745,0.48537 -0.66874,0.35837 1.30976,-0.76051 2.62814,-1.50607 3.94221,-2.25911 -1.19631,0.72488 -2.1571,1.74802 -3.16624,2.69993 -2.1457,1.74976 -4.77453,3.04772 -7.11231,4.4049 -0.11954,0.042 -0.23907,0.0841 -0.35861,0.12616 -0.12046,0.028 -0.24422,0.0444 -0.36137,0.084 -0.10286,0.0348 -0.38927,0.19212 -0.29506,0.13811 1.50578,-0.8633 3.01806,-1.71523 4.53068,-2.56648 0.081,-0.0456 -0.15524,0.1026 -0.23561,0.14936 -1.66687,0.96991 -3.33729,1.9337 -5.00594,2.90055 -0.2249,0.12904 -0.54231,0.0937 -0.766,0.21873 -0.23192,0.12963 -0.1375,0.18579 -0.50066,0.28414 0,0 4.39177,-3.46692 4.39177,-3.46692 v 0 c 0.38623,-0.23145 0.82234,-0.29335 1.20809,-0.53439 -1.50463,0.87534 -3.00527,1.75758 -4.5139,2.62602 -0.0824,0.0474 0.15209,-0.11495 0.2344,-0.16255 1.67111,-0.96625 3.33943,-1.93769 5.025,-2.87849 0.2916,-0.16276 0.6858,-0.16038 0.94846,-0.39514 -8.47696,4.9405 -4.05677,2.43103 -2.2252,1.1319 1.05926,-0.93914 2.00441,-2.01071 3.17097,-2.82664 0.29234,-0.16815 4.69831,-3.05752 6.68938,-3.65501 0.48348,-0.14508 0.97994,-0.16634 1.47959,-0.18332 0,0 -4.53466,3.29462 -4.53466,3.29462 z"
         id="path4541"
         style="opacity:1;fill:none;fill-opacity:1;stroke:#000000;stroke-width:1;stroke-linejoin:round;stroke-miterlimit:4;stroke-dasharray:none;stroke-opacity:1" />
      <path
         inkscape:connector-curvature="0"
         d="m 22.509968,228.41034 c -1.672405,0.96497 -3.340939,1.93667 -5.017214,2.89489 -0.182003,0.10404 -0.751118,0.37148 -0.569732,0.26637 1.470061,-0.85192 2.947778,-1.69058 4.425263,-2.52955 0.110576,-0.0628 -0.214323,0.13705 -0.324308,0.20086 -1.699361,0.986 -3.40239,1.96567 -5.103585,2.9485 8.371452,-4.8707 3.85389,-2.2445 1.963964,-1.04708 -1.928295,1.21204 -3.780766,2.67611 -5.963781,3.35448 -0.394049,0.12246 -0.798785,0.17069 -1.194442,0.28864 -0.71705,0.37284 -1.4937348,0.55297 -2.2891657,0.65254 -1.7895561,0.21533 -5.2955993,2.79326 4.0079207,-2.42717 0.05337,-0.03 -0.111018,0.0521 -0.163397,0.0837 -0.171623,0.1037 -0.13196,0.0917 -0.243279,0.27666 -0.21355,0.38287 -0.428878,0.72479 -0.743922,1.03491 -0.277068,0.26721 -0.556618,0.50165 -0.874836,0.71031 -1.2736356,1.72596 -2.9026239,1.91467 -5.2851253,3.27039 -0.070953,0.0404 -0.3050717,0.11163 -0.2345272,0.0705 3.3262622,-1.93721 6.2215935,-3.47739 4.4604474,-2.53944 -1.6493686,1.27521 -0.5630934,0.44713 -5.1575295,2.92571 -0.1411089,0.0761 -0.3238005,0.01 -0.4779566,0.054 -0.1626735,0.0465 -0.3025229,0.15938 -0.4385362,0.25162 -0.371978,0.17537 -0.1884813,0.0881 -0.5505305,0.26169 0,0 4.3519106,-3.46855 4.3519106,-3.46855 v 0 c 0.3575949,-0.17052 0.1743747,-0.082 0.5495054,-0.26595 0.2502381,-0.0844 0.5083217,-0.11634 0.756421,-0.20081 0.072061,-0.0245 0.2760109,-0.12751 0.2102188,-0.0892 -4.4795632,2.60702 -6.2753659,3.34047 -4.4556444,2.58858 1.5732901,-1.40985 0.1069412,-0.11463 5.1396159,-2.97481 0.065313,-0.0371 0.2629225,-0.14542 0.1982041,-0.10728 -1.5146869,0.89282 -3.0353071,1.77556 -4.5482342,2.67135 -0.1179613,0.0699 0.4900882,-0.22257 0.3385261,-0.23353 0.1758471,-0.42421 0.5247778,-0.47537 0.8309515,-0.81218 0.3359973,-0.26906 0.6820953,-0.47067 0.801067,-0.90782 0.1243849,-0.16198 0.148213,-0.4825 0.3282371,-0.5878 3.685191,-2.15543 3.310701,-2.62237 5.624714,-2.90827 0.776857,-0.15387 1.503459,-0.43944 2.250494,-0.69457 0.387275,-0.0927 0.770143,-0.18083 1.137824,-0.33825 0.13044,-0.0559 0.505996,-0.25619 0.383889,-0.18393 -1.278139,0.75648 -6.037968,3.52349 -3.852954,2.23782 2.378063,-1.62251 5.033463,-2.82504 7.426178,-4.41471 -14.5797626,8.43623 12.112758,-7.00524 -2.922387,1.73201 0,0 5.225735,-2.04469 5.225735,-2.04469 z"
         id="path4543"
         style="opacity:1;fill:none;fill-opacity:1;stroke:#000000;stroke-width:1;stroke-linejoin:round;stroke-miterlimit:4;stroke-dasharray:none;stroke-opacity:1" />
    </g>
    <g
       id="g4583"
       transform="matrix(0.24370896,0,0,0.19949913,47.243359,101.29574)">
      <path
         inkscape:connector-curvature="0"
         d="m -29.646554,195.80679 c -0.274611,0.94377 -0.327123,1.93705 -0.384477,2.9133 -0.06496,1.43255 -0.06647,2.86698 -0.07075,4.3007 -0.09695,1.30351 0.10826,2.5606 0.403201,3.82188 0.248322,0.9416 0.326581,1.91189 0.380315,2.88042 0.03054,0.94275 -0.01355,1.87992 0.139486,2.81324 0.31614,1.14639 0.456501,2.31767 0.531839,3.50092 0.07874,1.29288 -0.0087,2.59492 0.218887,3.87387 0.275627,1.04291 0.456377,2.10175 0.558064,3.17439 0.08809,0.93901 0.08264,1.88216 0.08921,2.82412 -0.0046,0.98949 -0.01148,1.97899 -0.0075,2.96849 0.0058,0.84492 0.01111,1.68983 0.01386,2.53476 -0.0083,0.76959 0.02952,1.54031 -0.02858,2.30818 -0.253563,0.98147 -0.495416,1.95917 -0.62322,2.96635 -0.10776,1.00953 -0.120521,2.02572 -0.126505,3.03997 -0.0054,0.97099 0.0021,1.94189 0.01148,2.91284 0.01439,0.83461 0.0062,1.66916 0.0024,2.50376 -0.09189,0.85557 0.116967,1.63223 0.36585,2.43722 0.281667,0.6686 0.173696,1.44708 0.490762,2.09515 0.296093,0.43105 0.917207,0.33455 1.38297,0.35279 0.833873,0.0129 1.667773,0.002 2.501728,0.008 1.174943,-0.0168 2.333822,-0.0386 3.488281,0.19767 1.387646,0.36995 2.699174,0.96325 4.046922,1.44772 1.654346,0.42614 3.356481,0.64461 5.038697,0.94554 1.5560333,0.17043 3.0823044,0.43602 4.6137307,0.75018 1.7443352,0.24627 3.4863677,0.46392 5.2240225,0.75983 1.45608264,0.3075 2.8633371,0.78234 4.332834,1.03067 1.2336042,0.16918 2.4820536,0.17029 3.724774,0.18192 1.3715203,-0.0612 2.7018149,0.31162 4.0453668,0.52371 0.921312,0.14188 1.852845,0.17891 2.783365,0.19326 0.518787,0.003 0.260531,0.002 0.774767,0.003 0,0 -4.4786019,3.24832 -4.4786019,3.24832 v 0 c -0.5152827,-0.008 -0.256489,-0.002 -0.7763796,-0.0161 -0.9293103,-0.0394 -1.8565945,-0.12074 -2.7711924,-0.2971 -1.312133,-0.24398 -2.6183722,-0.56041 -3.9652188,-0.47295 -1.2749283,-0.0101 -2.56058824,-0.004 -3.8185788,-0.23895 -1.4218097,-0.31868 -2.7913419,-0.8238 -4.224978,-1.08994 -1.7507902,-0.30096 -3.5170038,-0.44696 -5.2675095,-0.74596 -1.519827,-0.28798 -3.046076,-0.52272 -4.573296,-0.76807 -1.718388,-0.31405 -3.472142,-0.46973 -5.14619,-0.98393 -1.322463,-0.49284 -2.628144,-1.06534 -4.017079,-1.34748 -1.154499,-0.15293 -2.312999,-0.10497 -3.47525,-0.0908 -0.852336,0.0151 -1.705752,0.0327 -2.557486,-0.0142 -0.697436,-0.0601 -1.382093,-0.14268 -1.726771,-0.83605 -0.31732,-0.69406 -0.266192,-1.46002 -0.494073,-2.18488 -0.254785,-0.85414 -0.540956,-1.67654 -0.432016,-2.58612 -0.0042,-0.83446 -0.01291,-1.66885 -0.0013,-2.50334 0.006,-0.97579 0.0073,-1.95154 0.0073,-2.92731 0.0068,-1.03265 0.0059,-2.0677 0.103709,-3.09672 0.10886,-0.99641 0.27128,-1.98645 0.57617,-2.94428 0.127272,-0.74143 0.02949,-1.50153 0.0619,-2.25114 0.003,-0.85034 0.0088,-1.70065 0.01656,-2.55095 0.0064,-0.9875 0.0044,-1.97506 1.4e-4,-2.96255 0.0024,-0.93081 -0.0051,-1.86231 -0.05239,-2.79207 -0.07947,-1.06056 -0.240935,-2.1094 -0.50664,-3.1405 -0.250672,-1.30343 -0.145714,-2.61956 -0.229926,-3.93981 -0.08111,-1.15483 -0.220413,-2.30201 -0.53259,-3.42058 -0.219895,-0.94989 -0.210836,-1.89914 -0.210182,-2.87102 -0.02966,-0.94498 -0.09594,-1.88923 -0.300519,-2.81508 -0.270812,-1.31251 -0.51865,-2.60726 -0.397862,-3.95826 -7.94e-4,-1.43311 -0.0047,-2.86637 0.01931,-4.29933 0.02471,-0.98528 0.07741,-1.96683 0.196001,-2.94571 0,0 5.053269,-2.42072 5.053269,-2.42072 z"
         id="path4545"
         style="opacity:1;fill:none;fill-opacity:1;stroke:#000000;stroke-width:1;stroke-linejoin:round;stroke-miterlimit:4;stroke-dasharray:none;stroke-opacity:1" />
      <path
         inkscape:connector-curvature="0"
         d="m -29.998622,251.49994 c -0.08632,0.039 -0.170368,0.0834 -0.258956,0.1169 -0.352861,0.13342 -0.416705,0.10614 -0.78069,0.27546 -0.167931,0.0781 -0.648835,0.35751 -0.488365,0.26503 4.660982,-2.68621 5.433495,-3.18014 3.592769,-2.02702 -1.29681,0.96973 -2.530919,2.00975 -3.874482,2.91776 -1.424164,0.94699 -2.807721,1.95573 -4.147486,3.01863 -0.936969,0.82404 -1.862643,1.6295 -2.92104,2.29362 -0.976878,0.57504 -1.864579,1.27616 -2.713566,2.02304 -0.814573,0.73054 -1.555547,1.54854 -2.172571,2.45253 -0.430244,0.80034 -0.71942,1.67612 -1.012685,2.5354 -0.283212,0.81248 -0.693367,1.56527 -0.931007,2.39429 -0.153472,0.8478 -0.656291,1.49188 -1.168649,2.15122 -0.665258,0.86307 -1.309873,1.74186 -1.966958,2.61115 -0.587081,0.78457 -1.210548,1.54225 -1.797679,2.32632 -0.26946,0.38801 -0.129892,0.20211 -0.417468,0.55859 0,0 -5.132207,2.12087 -5.132207,2.12087 v 0 c 0.348048,-0.2677 0.185078,-0.11316 0.483097,-0.46971 0.533485,-0.85016 1.279848,-1.5525 1.848924,-2.38136 0.658855,-0.84555 1.284571,-1.71714 1.904257,-2.59138 0.484179,-0.60796 1.067477,-1.16348 1.259948,-1.94024 0.196739,-0.86257 0.565444,-1.63926 0.936117,-2.43732 0.284343,-0.90104 0.622811,-1.78951 0.969105,-2.66631 0.573125,-0.96318 1.331699,-1.81189 2.128512,-2.59551 0.843341,-0.77593 1.715366,-1.52504 2.698245,-2.12192 0.502809,-0.30689 1.051711,-0.58223 1.513356,-0.95111 0.51123,-0.4085 0.94439,-0.91725 1.478251,-1.30061 1.345996,-1.08096 2.745314,-2.09491 4.164062,-3.07758 1.344706,-0.86583 2.600677,-1.83613 3.803698,-2.88949 2.314318,-1.6135 4.75248,-3.16446 7.454489,-4.01476 0,0 -4.451021,3.40351 -4.451021,3.40351 z"
         id="path4547"
         style="opacity:1;fill:none;fill-opacity:1;stroke:#000000;stroke-width:1;stroke-linejoin:round;stroke-miterlimit:4;stroke-dasharray:none;stroke-opacity:1" />
      <path
         inkscape:connector-curvature="0"
         d="m 2.1090586,248.58545 c 1.4611926,0.53188 2.88737,1.15736 4.3165106,1.77006 1.4779542,0.6145 2.9001418,1.33917 4.3137528,2.08488 0.842502,0.36184 1.590159,0.88333 2.467344,1.16233 0.586438,0.31625 1.166856,0.67522 1.710307,1.06777 0.767699,0.42476 1.435262,0.99599 2.087326,1.57656 0.52609,0.61766 1.241735,1.00255 1.672158,1.69897 0.117797,0.46846 -0.01202,0.86429 -0.454623,1.1196 -2.95498,1.70454 -4.107515,2.56217 -6.674164,3.39029 -0.309199,0.0876 -1.017603,0.27635 -1.323889,0.40823 -0.193293,0.0832 -0.7387022,0.40355 -0.5559291,0.29923 7.2712431,-4.15016 4.4428731,-2.67752 2.8490471,-1.35529 -1.683394,1.60716 -3.0745658,3.48283 -4.6457722,5.19775 -1.8000903,1.88045 -3.5798053,3.78486 -5.5197416,5.52296 -2.22694938,1.89754 -4.8810129,3.11944 -7.4011202,4.59508 -1.380829,0.80856 2.7741723,-1.59555 4.16627046,-2.38454 0.13936128,-0.079 -0.27181696,0.16958 -0.40772546,0.25438 -1.6986432,0.97231 -3.3972861,1.94463 -5.0959294,2.91697 -0.1215429,0.0661 -0.4845457,0.26721 -0.3646286,0.19823 1.4711264,-0.8463 2.9455684,-1.6868 4.4183526,-2.53018 0,0 -5.1523163,2.02427 -5.1523163,2.02427 v 0 c 1.67914,-0.98518 3.3552378,-1.97556 5.0374199,-2.95556 0.1176561,-0.0685 0.4791908,-0.25865 0.3617247,-0.18978 -1.4396961,0.84405 -2.8858485,1.67706 -4.3287727,2.51558 3.0143656,-1.77782 10.2402419,-6.01305 1.5615348,-0.91829 -0.2312456,0.13576 0.4754139,-0.24897 0.7044449,-0.38844 0.7108545,-0.43283 0.9420942,-0.63886 1.6196247,-1.15533 2.00317952,-1.69476 3.8087063,-3.60111 5.6166418,-5.49957 0.5926,-0.64479 1.1777607,-1.26545 1.7390126,-1.93781 0.9021752,-1.08077 1.6904935,-2.26065 2.7081442,-3.24236 2.3575489,-2.14931 5.1923068,-3.85568 8.2788508,-4.69163 0.235021,-0.0828 0.471889,-0.16046 0.705062,-0.24829 0.23498,-0.0885 0.911686,-0.41423 0.699068,-0.28065 -1.354713,0.85113 -2.774133,1.5958 -4.133976,2.43871 -0.120196,0.0745 0.272274,-0.0776 0.404751,-0.12712 0.204112,-0.0762 0.210897,-0.0921 0.354483,-0.19713 -0.30315,-0.66322 -1.089356,-0.98367 -1.502506,-1.57515 -0.65595,-0.55723 -1.341217,-1.07104 -2.093023,-1.494 -0.5313985,-0.33515 -1.0513815,-0.70313 -1.6218634,-0.96394 -0.8562961,-0.35161 -1.6341431,-0.8546 -2.4594968,-1.27092 -1.3437396,-0.78648 -2.7198994,-1.51827 -4.1586013,-2.11854 -1.463186,-0.61312 -2.94072184,-1.25196 -4.5101228,-1.5359 0,0 4.6123699,-3.18143 4.6123699,-3.18143 z"
         id="path4549"
         style="opacity:1;fill:none;fill-opacity:1;stroke:#000000;stroke-width:1;stroke-linejoin:round;stroke-miterlimit:4;stroke-dasharray:none;stroke-opacity:1" />
      <path
         inkscape:connector-curvature="0"
         d="m -23.306887,212.75136 c -0.995548,-0.11453 -1.875833,-0.48251 -2.727737,-0.99551 -1.572334,-1.11964 -2.771397,-2.67932 -4.056745,-4.10336 -1.277006,-1.53178 -2.922278,-2.66976 -4.499065,-3.86399 -0.889534,-0.52693 -1.730767,-1.16075 -2.65095,-1.63452 -0.640025,-0.38987 -1.045139,-1.0396 -1.447104,-1.65271 -0.373693,-0.70737 -0.910477,-1.21751 -1.510165,-1.72574 0.213061,-0.59159 -1.104559,0.49216 -0.833996,0.35039 1.456981,-0.76339 2.821673,-1.70341 4.312428,-2.39855 0.218636,-0.10195 -0.301504,0.37855 -0.424926,0.58583 -0.159168,0.2673 -0.280104,0.55559 -0.420159,0.83338 -0.884438,2.35788 -1.304837,4.8695 -1.647145,7.35594 -0.296632,2.34739 -0.350258,4.71391 -0.364582,7.07678 -0.02723,1.23585 0.09929,2.47342 0.03577,3.70803 -0.106111,0.92016 -0.592286,1.64715 -1.275363,2.24081 -0.24864,0.21756 -0.474626,0.45639 -0.718892,0.6787 0,0 -5.166934,2.04776 -5.166934,2.04776 v 0 c 0.298966,-0.1716 0.557165,-0.35862 0.756828,-0.64908 0.663461,-0.55674 1.266558,-0.94724 1.472747,-1.86474 0.18001,-1.23728 0.03755,-2.50743 0.145511,-3.75223 0.0747,-2.40626 0.206046,-4.81257 0.486243,-7.20466 0.324284,-2.49371 0.678114,-5.00468 1.421966,-7.41334 0.0078,-0.0205 0.523047,-1.43984 0.645417,-1.52776 1.61432,-1.15994 3.338136,-2.16069 5.041897,-3.18475 0.128683,-0.0773 0.287083,-0.10424 0.437166,-0.10846 0.34713,-0.01 0.502396,0.13351 0.783026,0.29726 0.643956,0.53544 1.164294,1.13349 1.593032,1.85684 0.370155,0.5365 0.742546,1.09578 1.316514,1.43433 0.882285,0.55154 1.731746,1.16535 2.567146,1.78386 1.544765,1.26248 3.154538,2.46979 4.457309,3.99428 1.264241,1.38266 2.471129,2.89929 4.104573,3.86211 0.875951,0.42917 1.771399,0.70943 2.750455,0.77876 0,0 -4.584269,3.19434 -4.584269,3.19434 z"
         id="path4551"
         style="opacity:1;fill:none;fill-opacity:1;stroke:#000000;stroke-width:1;stroke-linejoin:round;stroke-miterlimit:4;stroke-dasharray:none;stroke-opacity:1" />
      <path
         inkscape:connector-curvature="0"
         d="m -50.041577,258.48886 c -0.0485,0.94431 -0.06379,1.89057 -0.06593,2.83608 0.0026,1.17901 -0.0024,2.35809 0.0021,3.5371 0.07534,1.29397 -0.06126,2.56522 -0.278107,3.83807 -0.224821,1.21254 -0.289626,2.4384 -0.662294,3.61813 -0.254198,0.77451 -0.428249,1.56297 -0.741915,2.31706 -0.210921,0.59584 -0.554131,1.26857 -0.390496,1.91283 0.717441,0.497 1.577287,0.70083 2.418622,0.87379 1.128832,0.19648 2.278512,0.20447 3.420705,0.23093 2.325111,0.037 4.650362,0.0652 6.975734,0.0776 3.173783,0.0241 6.347736,0.018 9.521442,-0.0127 0.418436,-0.007 0.836872,-0.0135 1.255305,-0.0201 0,0 -4.232548,3.0752 -4.232548,3.0752 v 0 c -0.400158,-0.007 -0.800314,-0.0132 -1.20047,-0.0198 -3.165414,-0.0306 -6.331093,-0.0336 -9.496544,-0.005 -2.399924,0.0169 -4.799528,0.0601 -7.199447,0.0761 -1.185336,-0.003 -2.379094,0 -3.537622,-0.28971 -0.990936,-0.24927 -2.147295,-0.48506 -2.814421,-1.3185 -0.238963,-0.76684 -0.01198,-1.53519 0.259959,-2.26992 0.31991,-0.75284 0.566422,-1.50547 0.780227,-2.29624 0.04345,-0.11432 0.31237,-0.81613 0.342527,-0.9195 0.252238,-0.86479 0.223594,-1.78358 0.43321,-2.6579 0.23391,-1.23933 0.34281,-2.46801 0.279474,-3.73086 0.0044,-1.17973 -5.29e-4,-2.35953 0.0021,-3.53928 -0.0021,-0.92311 -0.01633,-1.84708 -0.06593,-2.76889 0,0 4.994225,-2.54469 4.994225,-2.54469 z"
         id="path4553"
         style="opacity:1;fill:none;fill-opacity:1;stroke:#000000;stroke-width:1;stroke-linejoin:round;stroke-miterlimit:4;stroke-dasharray:none;stroke-opacity:1" />
      <path
         inkscape:connector-curvature="0"
         d="m 24.18343,266.5671 c 1.713705,1.15816 3.183141,2.59106 4.574849,4.1095 1.614459,1.87926 3.027553,3.92224 4.367853,6.00261 1.233895,2.06764 2.665579,3.99954 4.233166,5.82353 0.691015,0.92355 1.702671,1.2636 2.682156,1.75138 0,0 -4.604189,3.03509 -4.604189,3.03509 v 0 c -1.042938,-0.50094 -1.982171,-1.05968 -2.65919,-2.04272 -1.476751,-1.91137 -2.846583,-3.90122 -4.130572,-5.94717 -1.362466,-2.03618 -2.775945,-4.04693 -4.399593,-5.88608 -1.375715,-1.50487 -2.817698,-2.97635 -4.70908,-3.82698 0,0 4.6446,-3.01916 4.6446,-3.01916 z"
         id="path4555"
         style="opacity:1;fill:none;fill-opacity:1;stroke:#000000;stroke-width:1;stroke-linejoin:round;stroke-miterlimit:4;stroke-dasharray:none;stroke-opacity:1" />
      <path
         inkscape:connector-curvature="0"
         d="m 30.063183,272.79227 c 1.401146,-0.80061 2.782192,-1.63746 4.203435,-2.40181 0.311256,-0.1674 -0.589174,0.39161 -0.868426,0.60822 -0.392668,0.30459 -0.771668,0.62672 -1.145627,0.95401 -1.748877,1.53056 -3.386587,3.17032 -5.016989,4.82433 -3.383724,3.60482 -6.585288,7.37484 -9.855166,11.08223 -1.502629,1.51379 -2.872699,3.19736 -4.528708,4.55219 0,0 -5.0657835,2.00945 -5.0657835,2.00945 v 0 c 1.8889628,-1.25666 3.3452695,-3.1206 5.0137565,-4.63745 3.411765,-3.67848 6.693635,-7.47234 10.065658,-11.18669 1.504936,-1.59951 3.02545,-3.1736 4.606523,-4.69831 0.175041,-0.16881 1.359811,-1.31734 1.710677,-1.5326 1.718244,-1.05424 3.482428,-2.03171 5.22364,-3.04755 0,0 -4.34299,3.47398 -4.34299,3.47398 z"
         id="path4557"
         style="opacity:1;fill:none;fill-opacity:1;stroke:#000000;stroke-width:1;stroke-linejoin:round;stroke-miterlimit:4;stroke-dasharray:none;stroke-opacity:1" />
      <path
         inkscape:connector-curvature="0"
         d="m -38.373248,160.41518 c 1.383273,0.0433 2.270773,1.19165 3.051511,2.18492 1.20504,1.77703 2.184456,3.7069 3.061245,5.6644 0.489148,1.30046 1.195845,2.43534 2.117651,3.46221 0.744723,0.78577 1.490199,1.56293 2.47632,2.03418 0.718135,0.28193 1.491677,0.29235 2.25179,0.30208 1.793399,-0.62537 1.899975,-0.6862 -3.882068,2.21695 -0.237141,0.11906 0.42236,-0.3244 0.607277,-0.51471 0.237308,-0.24423 0.447532,-0.51396 0.654783,-0.78417 0.603231,-0.78644 0.812636,-1.1671 1.34316,-2.01456 1.090952,-1.9451 2.209493,-3.87388 2.941824,-5.98688 0.256318,-0.9177 0.14702,-0.4725 0.333976,-1.33409 0,0 4.895906,-2.3591 4.895906,-2.3591 v 0 c -0.2162,0.9233 -0.09096,0.4471 -0.38202,1.42691 -0.77572,2.15919 -1.91778,4.12547 -3.01014,6.13672 -1.784282,3.05824 -3.774502,6.17697 -7.990535,6.4515 -0.819549,-0.0419 -1.638681,-0.13131 -2.373918,-0.52893 -0.97286,-0.58534 -1.753296,-1.4015 -2.53469,-2.2172 -0.972222,-1.06726 -1.598718,-2.32812 -2.087382,-3.68395 -0.805953,-1.9321 -1.735953,-3.84387 -2.996375,-5.52328 -0.828315,-0.92097 -1.671764,-1.80402 -3.012977,-1.63837 0,0 4.534662,-3.29463 4.534662,-3.29463 z"
         id="path4559"
         style="opacity:1;fill:none;fill-opacity:1;stroke:#000000;stroke-width:1;stroke-linejoin:round;stroke-miterlimit:4;stroke-dasharray:none;stroke-opacity:1" />
      <path
         inkscape:connector-curvature="0"
         d="m -18.68661,161.82941 c -1.223014,1.85933 -2.137051,3.89993 -2.989228,5.94944 -0.836239,2.22751 -1.518097,4.50407 -2.089276,6.81203 -0.484836,2.05068 -1.40975,3.61918 -2.799277,5.17109 -2.300195,2.65309 -3.562832,2.8633 -7.305638,4.95514 -1.021109,0.0651 -1.999927,0.24813 -2.997049,0.4692 -0.216175,0.0331 -0.432353,0.0662 -0.648528,0.0993 0,0 4.337505,-3.27134 4.337505,-3.27134 v 0 c 0.219482,-0.0456 0.438965,-0.0911 0.658447,-0.1367 0.992428,-0.22863 2.016646,-0.26012 2.982042,-0.58105 -1.44947,0.84515 -2.898939,1.69031 -4.348411,2.53546 0.412104,-0.20268 0.484275,-0.2132 0.861769,-0.50905 0.562496,-0.44084 1.013346,-0.99896 1.520865,-1.49739 1.475724,-1.49472 2.429134,-2.86017 2.945516,-4.93862 0.595482,-2.36244 1.385858,-4.66001 2.210962,-6.95177 0.791387,-1.97535 1.672327,-3.90738 2.519339,-5.8564 0,0 5.140962,-2.24935 5.140962,-2.24935 z"
         id="path4561"
         style="opacity:1;fill:none;fill-opacity:1;stroke:#000000;stroke-width:1;stroke-linejoin:round;stroke-miterlimit:4;stroke-dasharray:none;stroke-opacity:1" />
      <path
         inkscape:connector-curvature="0"
         d="m -96.776076,274.16638 c 3.070035,0.92041 5.957935,2.34646 8.880475,3.64239 4.711684,2.11074 9.229103,4.50217 14.191157,5.99027 3.109047,0.99848 6.079654,2.32439 9.296405,2.95222 1.599698,0.20074 4.466868,0.0436 3.934108,2.60384 -0.102401,0.49213 -0.486351,0.87982 -0.729527,1.31974 -3.104245,3.85861 -6.162379,7.75415 -9.210032,11.6585 -2.946614,3.70372 -5.701178,7.57121 -9.009602,10.96478 -3.300288,3.42993 -7.20189,6.03811 -11.222043,8.52472 -6.047168,4.0209 -12.380605,7.46257 -18.763335,10.98716 -1.45489,0.80341 -3.29356,1.33705 -4.82449,2.08728 -6.12074,3.74467 7.90968,-4.35618 11.7512,-6.72497 0.0148,-0.009 -0.54481,-0.69625 -0.008,-0.71901 0.82213,-0.0348 1.57154,0.48922 2.35046,0.75454 4.229112,1.24627 8.505411,2.35633 12.674805,3.79331 5.940097,1.98432 11.652348,4.55157 17.329192,7.17867 4.370033,2.11072 9.070239,3.01419 13.863254,3.42207 2.427123,0.12163 1.245198,0.0786 3.545588,0.13398 0,0 -12.536177,9.01907 -12.536177,9.01907 v 0 c -2.258254,-0.15746 -1.097148,-0.0615 -3.482862,-0.29321 -4.827452,-0.62841 -9.525518,-1.75112 -13.877506,-4.0213 -5.61671,-2.67652 -11.30866,-5.19843 -17.28564,-6.97547 -4.311984,-1.28167 -8.679014,-2.3802 -13.031424,-3.51547 -0.0616,-0.0161 -2.49424,-0.6382 -2.69545,-0.74848 -0.727,-0.39838 -2.11994,-1.54771 -1.44268,-2.02581 7.71057,-5.44306 9.49167,-6.26377 14.95056,-8.90413 1.96524,-0.86257 0.96412,-0.43375 3.004069,-1.28479 0.552929,-0.24259 2.162188,-1.06939 1.646245,-0.75573 -21.100804,12.82809 -11.820624,7.00739 -7.285834,4.06707 3.94313,-2.48174 7.983265,-4.7829 11.24725,-8.18353 3.500506,-3.23803 6.236478,-7.12936 9.225777,-10.82747 2.926324,-3.79775 5.888376,-7.56819 8.82437,-11.35822 0.832694,-1.02335 0.329843,-0.92453 1.278578,-0.72591 0.254984,0.0534 -0.507177,-0.12075 -0.763847,-0.16531 -2.475463,-0.42979 0.251947,0.11867 -2.282584,-0.4123 -3.108148,-0.85063 -6.003777,-2.25483 -9.054446,-3.2789 -4.893054,-1.7413 -9.444927,-4.20256 -14.280488,-6.08251 -2.88746,-1.16184 -5.86888,-2.70819 -9.03379,-2.77849 0,0 12.825959,-9.3186 12.825959,-9.3186 z"
         id="path4563"
         style="opacity:1;fill:none;fill-opacity:1;stroke:#000000;stroke-width:1;stroke-linejoin:round;stroke-miterlimit:4;stroke-dasharray:none;stroke-opacity:1" />
    </g>
    <text
       xml:space="preserve"
       style="font-style:normal;font-weight:normal;font-size:5.41572142px;line-height:1.25;font-family:sans-serif;letter-spacing:0px;word-spacing:0px;fill:#ff0000;fill-opacity:1;stroke:none;stroke-width:0.13539302;"
       x="104.9826"
       y="119.6369"
       id="text4587"
       transform="scale(0.8768886,1.1403957)"><tspan
         sodipodi:role="line"
         id="tspan4585"
         x="104.9826"
         y="119.6369"
         style="stroke-width:0.13539302;fill:#ff0000;">0</tspan></text>
    <text
       xml:space="preserve"
       style="font-style:normal;font-weight:normal;font-size:5.08398962px;line-height:1.25;font-family:sans-serif;letter-spacing:0px;word-spacing:0px;fill:#ff0000;fill-opacity:1;stroke:none;stroke-width:0.12709974"
       x="170.85486"
       y="135.83647"
       id="text4591"><tspan
         sodipodi:role="line"
         id="tspan4589"
         x="170.85486"
         y="135.83647"
         style="fill:#ff0000;stroke-width:0.12709974">1</tspan></text>
    <text
       xml:space="preserve"
       style="font-style:normal;font-weight:normal;font-size:5.08398962px;line-height:1.25;font-family:sans-serif;letter-spacing:0px;word-spacing:0px;fill:#ff0000;fill-opacity:1;stroke:none;stroke-width:0.12709974"
       x="170.88416"
       y="74.713242"
       id="text4591-6"><tspan
         sodipodi:role="line"
         id="tspan4589-7"
         x="170.88416"
         y="74.713242"
         style="fill:#ff0000;stroke-width:0.12709974">2</tspan></text>
    <text
       xml:space="preserve"
       style="font-style:normal;font-weight:normal;font-size:5.08398962px;line-height:1.25;font-family:sans-serif;letter-spacing:0px;word-spacing:0px;fill:#ff0000;fill-opacity:1;stroke:none;stroke-width:0.12709974"
       x="84.642853"
       y="70.77742"
       id="text4591-6-5"><tspan
         sodipodi:role="line"
         id="tspan4589-7-3"
         x="84.642853"
         y="70.77742"
         style="fill:#ff0000;stroke-width:0.12709974">3</tspan></text>
    <text
       xml:space="preserve"
       style="font-style:normal;font-weight:normal;font-size:5.41572142px;line-height:1.25;font-family:sans-serif;letter-spacing:0px;word-spacing:0px;fill:#ff0000;fill-opacity:1;stroke:none;stroke-width:0.13539302"
       x="94.593094"
       y="132.3344"
       id="text4587-5"
       transform="scale(0.8768886,1.1403957)"><tspan
         sodipodi:role="line"
         id="tspan4585-6"
         x="94.593094"
         y="132.3344"
         style="fill:#ff0000;stroke-width:0.13539302">4</tspan></text>
    <text
       xml:space="preserve"
       style="font-style:normal;font-weight:normal;font-size:5.41572142px;line-height:1.25;font-family:sans-serif;letter-spacing:0px;word-spacing:0px;fill:#ff0000;fill-opacity:1;stroke:none;stroke-width:0.13539302"
       x="184.15683"
       y="131.26758"
       id="text4587-5-2"
       transform="scale(0.8768886,1.1403957)"><tspan
         sodipodi:role="line"
         id="tspan4585-6-9"
         x="184.15683"
         y="131.26758"
         style="fill:#ff0000;stroke-width:0.13539302">5</tspan></text>
    <text
       xml:space="preserve"
       style="font-style:normal;font-weight:normal;font-size:5.41572142px;line-height:1.25;font-family:sans-serif;letter-spacing:0px;word-spacing:0px;fill:#ff0000;fill-opacity:1;stroke:none;stroke-width:0.13539302"
       x="186.02393"
       y="73.117653"
       id="text4587-5-2-1"
       transform="scale(0.8768886,1.1403957)"><tspan
         sodipodi:role="line"
         id="tspan4585-6-9-2"
         x="186.02393"
         y="73.117653"
         style="fill:#ff0000;stroke-width:0.13539302">6</tspan></text>
    <text
       xml:space="preserve"
       style="font-style:normal;font-weight:normal;font-size:5.41572142px;line-height:1.25;font-family:sans-serif;letter-spacing:0px;word-spacing:0px;fill:#ff0000;fill-opacity:1;stroke:none;stroke-width:0.13539302;"
       x="88.993095"
       y="69.341759"
       id="text4587-5-2-1-7"
       transform="scale(0.8768886,1.1403957)"><tspan
         sodipodi:role="line"
         id="tspan4585-6-9-2-0"
         x="88.993095"
         y="69.341759"
         style="fill:#ff0000;stroke-width:0.13539302;">7</tspan></text>
    <path
       style="opacity:1;fill:#008000;fill-opacity:1;stroke:#000000;stroke-width:1;stroke-linejoin:round;stroke-miterlimit:4;stroke-dasharray:none;stroke-opacity:1"
       id="path4701"
       d="m 95.508237,57.434551 c 0.68208,-0.160277 1.389478,-0.199345 2.08711,-0.244586 0.842257,-0.04632 1.682653,-0.04348 2.522563,-0.126413 1.82499,-0.173077 3.66116,-0.168545 5.49255,-0.186568 2.63498,-0.01503 5.27004,-0.01191 7.90501,-0.02916 1.96712,0.04205 3.92178,0.284046 5.88405,0.409924 1.70696,0.09215 3.41102,0.245173 5.11315,0.402942 1.61152,0.222353 3.1914,0.607147 4.80401,0.823809 1.5624,0.181396 3.13729,0.195493 4.7081,0.213368 1.44965,-0.06166 2.88911,0.06768 4.33107,0.190114 0.9372,0.08184 1.87709,0.121303 2.81759,0.130027 0.27819,0.0016 0.55638,-7.94e-4 0.83455,-0.003 0,0 -2.22435,1.613914 -2.22435,1.613914 v 0 c -0.26896,-0.0057 -0.53791,-0.01204 -0.80667,-0.02416 -0.91713,-0.04187 -1.83355,-0.0996 -2.74612,-0.202919 -1.41793,-0.144889 -2.83688,-0.247724 -4.26386,-0.211985 -1.5844,-0.01318 -3.17285,-0.03195 -4.74762,-0.22606 -1.59635,-0.23632 -3.1602,-0.643691 -4.76337,-0.83712 -1.70656,-0.151844 -3.41342,-0.306369 -5.12505,-0.388742 -1.91667,-0.154897 -3.82273,-0.435634 -5.74674,-0.486838 -2.63813,-0.01545 -5.27657,-0.01302 -7.9143,0.04107 -1.89464,0.04862 -3.792963,0.103385 -5.674687,0.347482 -0.850845,0.09272 -1.70306,0.101812 -2.557455,0.141534 -0.726755,0.05678 -1.459436,0.122068 -2.155039,0.355126 0,0 2.225508,-1.701755 2.225508,-1.701755 z"
       inkscape:connector-curvature="0" />
    <path
       style="opacity:1;fill:#008000;fill-opacity:1;stroke:#000000;stroke-width:1;stroke-linejoin:round;stroke-miterlimit:4;stroke-dasharray:none;stroke-opacity:1"
       id="path4703"
       d="m 132.60582,49.972531 c 1.10665,0.2844 2.20611,0.59663 3.30828,0.898334 1.33128,0.365184 2.66089,0.733603 3.93557,1.267175 1.28486,0.735885 2.49435,1.600512 3.7008,2.457611 0.86465,0.587732 1.53474,1.399738 2.33405,2.062856 0.35495,0.260448 0.80033,0.450635 1.02441,0.848055 0.17273,0.369176 -0.12351,0.668359 -0.33498,0.944063 -0.48743,0.70885 -1.04732,1.350658 -1.6873,1.924222 -0.6841,0.601186 -1.42702,1.12871 -2.12783,1.708994 -0.54768,0.48211 -1.15829,0.880369 -1.78431,1.251368 -1.92261,1.265446 -2.50385,1.554559 -4.31479,1.995752 -0.5712,0.227684 -1.18297,0.286649 -1.78443,0.381119 -0.9025,0.189973 -1.79902,0.417192 -2.68515,0.673346 -0.62495,0.19676 -1.2659,0.333264 -1.91375,0.426455 0,0 2.18366,-1.635487 2.18366,-1.635487 v 0 c 0.62093,-0.09238 1.23314,-0.228711 1.83451,-0.410247 0.91053,-0.251148 1.82458,-0.498517 2.75083,-0.684223 0.60315,-0.09914 1.20047,-0.21222 1.78225,-0.405117 0.30315,-0.07106 0.60687,-0.136842 0.90206,-0.237649 0.90646,-0.309552 2.42504,-1.25196 -1.28735,0.868696 0.63712,-0.361833 1.2682,-0.742452 1.82753,-1.219007 0.69781,-0.588295 1.44622,-1.110273 2.13679,-1.707986 0.64093,-0.532513 1.21859,-1.132218 1.65854,-1.845064 0.0387,-0.05625 0.41414,-0.523486 0.42762,-0.577672 0.005,-0.02164 -0.008,-0.04387 -0.0121,-0.0658 -0.16136,-0.379619 -0.61739,-0.528156 -0.89114,-0.80808 -0.74213,-0.698468 -1.37916,-1.508556 -2.21307,-2.107546 -1.18438,-0.863116 -2.38602,-1.719784 -3.69138,-2.392085 -1.26328,-0.515057 -2.57336,-0.895078 -3.88685,-1.260263 -1.14749,-0.306187 -2.30052,-0.627862 -3.48459,-0.754645 0,0 2.29213,-1.597173 2.29213,-1.597173 z"
       inkscape:connector-curvature="0" />
    <text
       xml:space="preserve"
       style="font-style:normal;font-weight:normal;font-size:10.58333302px;line-height:1.25;font-family:sans-serif;letter-spacing:0px;word-spacing:0px;fill:#0000ff;fill-opacity:1;stroke:none;stroke-width:0.26458332;"
       x="99.974701"
       y="42.622021"
       id="text4707"><tspan
         sodipodi:role="line"
         id="tspan4705"
         x="99.974701"
         y="42.622021"
         style="stroke-width:0.26458332;fill:#0000ff;">u= 1 m/s</tspan></text>
    <path
       style="opacity:1;fill:#0000ff;fill-opacity:1;stroke:#000000;stroke-width:1;stroke-linejoin:round;stroke-miterlimit:4;stroke-dasharray:none;stroke-opacity:1"
       id="path4709"
       d="m 55.219631,77.067184 c -0.152106,1.238933 -0.36394,2.466091 -0.485513,3.710869 -0.184528,2.258324 -0.188619,4.525708 -0.197321,6.789914 0.0061,2.092045 -0.01495,4.184166 0.0063,6.276147 0.0159,1.731918 0.02191,3.463922 0.0388,5.195843 0.02379,1.347603 0.01392,2.695363 0.02103,4.043073 -0.0037,1.42573 -0.01397,2.85144 -0.01908,4.27717 0.0045,1.31411 0.02037,2.62815 0.02889,3.94224 0.0046,1.10072 0.01201,2.20147 0.0027,3.30217 -0.01323,1.19657 -0.01289,2.39346 0.0033,3.59 -0.01812,0.93457 -0.258636,1.84454 -0.380884,2.76873 -0.11675,0.905 -0.132379,1.81844 -0.146386,2.72953 -0.01125,1.06364 0.02951,2.12483 -0.104378,3.18186 -0.164923,1.07379 -0.644814,2.05088 -1.042953,3.04934 -0.25263,0.65018 -0.362104,1.33494 -0.409988,2.02674 -0.02614,0.53901 -0.01889,1.0789 -0.0158,1.61832 -0.0086,0.71495 0.0181,1.42472 -0.102057,2.13147 -0.180232,0.68073 -0.308264,1.36989 -0.378286,2.07024 -0.04576,0.58413 -0.05358,1.17069 -0.05864,1.75637 -0.0067,0.71102 -0.01035,1.42183 -0.0037,2.13289 0.0069,0.597 0.01106,1.19403 0.0132,1.79107 7.94e-4,0.36107 5.29e-4,0.18093 0.0011,0.54042 0,0 -3.486539,1.77649 -3.486539,1.77649 v 0 c 5.29e-4,-0.36008 1.9e-4,-0.1796 0.0011,-0.54143 0.0019,-0.60103 0.0058,-1.20205 0.01127,-1.80306 0.0048,-0.70946 -0.0019,-1.41862 -0.0091,-2.12801 -0.0021,-0.59704 -0.0096,-1.19485 0.04352,-1.79034 0.06881,-0.71397 0.178842,-1.42561 0.378785,-2.11579 0.164648,-0.67248 0.126053,-1.35342 0.10295,-2.04138 -0.0031,-0.54919 -0.01029,-1.09875 0.01254,-1.64764 0.04516,-0.73703 0.154877,-1.46717 0.417386,-2.16203 0.376959,-0.98962 0.919231,-1.92088 1.100682,-2.97886 0.162798,-1.03845 0.114951,-2.08242 0.114387,-3.13083 0.003,-0.92072 -0.0033,-1.84467 0.09893,-2.76102 0.132834,-0.91708 0.341664,-1.82135 0.444148,-2.74129 0.01595,-1.19767 0.01667,-2.39567 0.0033,-3.59336 -0.0094,-1.10162 -0.0019,-2.2033 0.0027,-3.30493 0.0085,-1.32391 0.02439,-2.64776 0.0289,-3.97169 -0.0051,-1.41925 -0.0154,-2.83848 -0.01905,-4.25773 0.0071,-1.35475 -0.0026,-2.70954 0.02053,-4.06418 0.01609,-1.744253 0.0208,-3.488585 0.03414,-5.23285 0.0186,-2.097527 -0.0083,-4.195154 0.0195,-6.292662 0.02596,-2.265471 0.06799,-4.531003 0.154358,-6.795064 0.05828,-1.183587 0.18791,-2.367465 0.22384,-3.547385 0,0 3.531452,-1.799365 3.531452,-1.799365 z"
       inkscape:connector-curvature="0" />
    <path
       style="opacity:1;fill:#0000ff;fill-opacity:1;stroke:#000000;stroke-width:1;stroke-linejoin:round;stroke-miterlimit:4;stroke-dasharray:none;stroke-opacity:1"
       id="path4711"
       d="m 59.171217,138.94395 c -1.808453,1.22879 -3.709183,2.36756 -5.761444,3.13342 -0.900735,0.41082 -1.844093,0.67852 -2.783462,0.97679 -0.706234,0.34267 -1.492856,0.40411 -2.217026,0.69331 -0.771903,0.20477 -1.523272,0.46412 -2.26074,0.77151 -0.710163,0.37691 -1.45478,0.68264 -2.176735,1.03443 -1.162542,0.67651 -3.134122,1.72596 2.241013,-1.28853 0.110532,-0.062 -0.211857,0.13938 -0.313595,0.21495 -0.153532,0.11403 -0.400579,0.32759 -0.548529,0.45317 -0.346178,0.26126 -0.587787,0.58123 -0.731112,0.9871 0,0 -3.554497,1.67763 -3.554497,1.67763 v 0 c 0.129817,-0.46727 0.289377,-0.89666 0.681712,-1.21301 0.286348,-0.22779 0.553326,-0.53891 0.866735,-0.72688 1.42902,-0.85708 2.883318,-1.74818 4.380733,-2.51111 0.732552,-0.33541 1.455269,-0.69182 2.192964,-1.01571 0.751899,-0.28293 1.513025,-0.52842 2.279727,-0.76705 0.738804,-0.22597 1.499984,-0.37447 2.21724,-0.67122 0.929976,-0.26492 1.829768,-0.60237 2.723872,-0.97112 0.533789,-0.22294 0.478782,-0.19161 0.997942,-0.44158 0.152578,-0.0735 0.600274,-0.31297 0.455129,-0.22574 -5.126178,3.08089 -3.452617,2.06175 -2.362227,1.35006 0,0 3.6723,-1.46042 3.6723,-1.46042 z"
       inkscape:connector-curvature="0" />
    <path
       style="opacity:1;fill:#0000ff;fill-opacity:1;stroke:#000000;stroke-width:1;stroke-linejoin:round;stroke-miterlimit:4;stroke-dasharray:none;stroke-opacity:1"
       id="path4713"
       d="m 58.166819,76.134314 c -0.07202,0.02421 -0.143785,0.04917 -0.216056,0.07261 -0.357399,0.115925 -0.406828,0.109668 -0.764947,0.303851 -0.171363,0.09292 -0.669584,0.399356 -0.499396,0.304302 2.564845,-1.43251 3.538069,-2.089086 1.939192,-1.04358 -1.41742,0.933625 -2.787742,1.93493 -4.223266,2.840781 -1.717333,1.062993 -3.482837,2.046465 -5.230455,3.057583 -0.844418,0.488556 3.380425,-1.949447 2.534944,-1.462736 -4.310015,2.481112 -2.515079,1.470547 -4.480409,2.573523 -0.977651,0.47879 -1.899158,1.073941 -2.889666,1.525257 -1.20665,0.647044 -3.103372,1.662038 2.453138,-1.417095 0.08751,-0.0485 -0.159557,0.120838 -0.237128,0.184033 -0.690031,0.562163 0.235228,-0.168706 -0.438793,0.360048 -1.358035,0.854284 -2.79051,1.636432 -4.176527,2.409521 -0.272576,0.152035 -0.623573,0.21477 -0.918615,0.310025 -0.503213,0.240586 -1.034619,0.395327 -1.580687,0.498576 0,0 3.105666,-2.360875 3.105666,-2.360875 v 0 c 0.529722,-0.134088 1.036926,-0.327644 1.546188,-0.524406 0.216458,-0.07509 0.390935,-0.130017 0.598871,-0.222589 0.0957,-0.0426 0.372496,-0.191355 0.282247,-0.138173 -5.393057,3.177952 -3.681825,2.097063 -2.497,1.45829 0.236424,-0.141681 0.252868,-0.13743 0.465143,-0.323805 0.07851,-0.06892 0.13693,-0.162512 0.225944,-0.217196 1.372679,-0.843233 2.737291,-1.735884 4.19872,-2.428677 0.937411,-0.469156 1.854399,-0.980913 2.780959,-1.470808 0.207936,-0.117192 0.829982,-0.471847 0.623811,-0.351578 -0.848194,0.494784 -3.401031,1.964912 -2.549922,1.475158 1.287465,-0.74085 2.570644,-1.489141 3.858998,-2.228443 0.846367,-0.485674 -1.687679,0.980128 -2.533039,1.467559 -0.23096,0.133173 0.460849,-0.268224 0.689832,-0.40477 0.235038,-0.140155 0.468133,-0.283541 0.702202,-0.42531 1.446315,-0.884084 2.814986,-1.880719 4.220739,-2.826969 1.934813,-1.315043 3.919527,-2.675962 6.156661,-3.400756 0,0 -3.147349,2.406645 -3.147349,2.406645 z"
       inkscape:connector-curvature="0" />
    <path
       style="opacity:1;fill:#0000ff;fill-opacity:1;stroke:#000000;stroke-width:1;stroke-linejoin:round;stroke-miterlimit:4;stroke-dasharray:none;stroke-opacity:1"
       id="path4715"
       d="m 83.01058,154.6099 c -0.18402,0.95604 -0.366043,1.90735 -0.474932,2.87655 -0.107262,1.17614 -0.116602,2.35803 -0.123695,3.53811 0.05144,1.08351 -0.01659,2.15332 -0.18455,3.22305 -0.173442,0.94504 -0.503555,1.84827 -0.692856,2.78982 -0.143942,0.69997 -0.397952,1.36859 -0.550098,2.06664 -0.106011,0.53267 -0.121619,1.07642 -0.131117,1.61763 -0.01799,0.51828 0.04332,1.04055 -0.06582,1.55055 -0.07345,0.1878 -0.165928,0.36651 -0.247245,0.5509 0,0 -3.567531,1.66057 -3.567531,1.66057 v 0 c 0.06091,-0.19548 0.121798,-0.38915 0.24307,-0.55784 0.279514,-0.41374 0.105262,-0.95962 0.147984,-1.43227 0.0058,-0.5649 0.01474,-1.13237 0.110898,-1.69066 0.140094,-0.71023 0.403032,-1.37925 0.579453,-2.07908 0.194852,-0.95153 0.530664,-1.85695 0.751081,-2.80075 0.174855,-1.06229 0.249549,-2.0945 0.212344,-3.17257 0.01251,-1.19214 0.03356,-2.38492 0.121621,-3.57433 0.07452,-0.93014 0.209849,-1.85137 0.350096,-2.77213 0,0 3.521292,-1.79419 3.521292,-1.79419 z"
       inkscape:connector-curvature="0" />
    <path
       style="opacity:1;fill:#0000ff;fill-opacity:1;stroke:#000000;stroke-width:1;stroke-linejoin:round;stroke-miterlimit:4;stroke-dasharray:none;stroke-opacity:1"
       id="path4717"
       d="m 81.080601,163.19902 c 0.852088,-0.1175 1.717908,-0.10655 2.576423,-0.11307 1.743741,0.0413 3.434556,0.53029 5.092104,1.03278 1.716707,0.51915 3.369622,1.21552 5.065773,1.79527 2.10424,0.78123 4.305692,1.11998 6.529329,1.31855 2.26394,0.17873 4.53604,0.11601 6.80344,0.1906 1.90589,0.21417 3.76973,0.68689 5.65497,1.03433 2.21786,0.40593 4.44156,0.78537 6.6827,1.03653 2.88671,0.27302 5.78869,0.30429 8.68598,0.32001 2.19714,0.004 4.39417,-0.0264 6.59117,-0.047 1.09155,-0.0147 2.18285,-0.0428 3.27436,-0.0594 0.9134,5.3e-4 1.82657,0.0191 2.73999,0.0223 1.15616,-1.7e-4 2.31227,-0.002 3.46841,0.006 1.22635,-0.0861 2.4255,0.12338 3.63204,0.29966 0.87289,0.12881 1.75329,0.1812 2.63454,0.20055 0.59,0.008 1.18007,0.003 1.7701,2.4e-4 0.60382,-0.007 1.20755,0.002 1.81131,0.01 0.79961,-0.001 1.59919,0.005 2.3988,1.5e-4 0.54026,0.0247 1.08791,-0.0466 1.62427,0.0447 0.27664,0.0471 0.54675,0.12669 0.82033,0.18915 0.74607,0.17757 1.50907,0.24523 2.27312,0.27925 0.6239,0.0173 1.2482,0.0189 1.87231,0.0173 0.62665,-0.14858 1.24097,-0.33742 1.88047,-0.44377 0.30867,-0.006 0.57051,-0.0989 0.83924,-0.23788 0,0 -3.07859,2.4133 -3.07859,2.4133 v 0 c -0.28674,0.0751 -0.5752,0.13161 -0.86931,0.17111 -0.64142,0.13085 -1.26501,0.37082 -1.9236,0.38722 -0.62657,-0.002 -1.25381,0.005 -1.87915,-0.0422 -0.76826,-0.0613 -1.53269,-0.15947 -2.28243,-0.34335 -0.79789,-0.15989 -1.59333,-0.19825 -2.40705,-0.16045 -0.79999,-0.004 -1.59996,0.002 -2.39996,10e-4 -0.61484,0.008 -1.22965,0.0185 -1.84458,0.0151 -0.58496,-5.3e-4 -1.17017,-0.002 -1.75458,-0.0308 -0.8699,-0.0482 -1.73754,-0.12955 -2.59645,-0.27973 -1.18949,-0.18303 -2.37614,-0.33805 -3.58421,-0.2644 -1.16163,0.008 -2.32324,0.006 -3.48489,0.006 -0.93408,0.003 -1.86792,0.0214 -2.80198,0.0232 -1.04099,-0.0146 -2.08183,-0.0394 -3.12288,-0.0504 -2.14754,-0.0143 -4.29502,-0.0366 -6.4424,-0.0662 -2.91045,-0.045 -5.8241,-0.0893 -8.72623,-0.33252 -2.28239,-0.22977 -4.54751,-0.58234 -6.80615,-0.98225 -1.86757,-0.33632 -3.70967,-0.82731 -5.60125,-1.00695 -2.25302,-0.079 -4.510886,-0.0529 -6.759194,-0.24772 -2.263907,-0.21192 -4.50461,-0.55578 -6.65313,-1.33586 -1.703615,-0.56938 -3.370654,-1.24026 -5.089403,-1.76435 -1.651794,-0.49432 -3.335811,-0.97094 -5.07877,-0.89612 -0.89685,0.0411 -1.812078,0.0531 -2.682338,0.29739 0,0 3.147346,-2.40665 3.147346,-2.40665 z"
       inkscape:connector-curvature="0" />
    <path
       style="opacity:1;fill:#0000ff;fill-opacity:1;stroke:#000000;stroke-width:1;stroke-linejoin:round;stroke-miterlimit:4;stroke-dasharray:none;stroke-opacity:1"
       id="path4719"
       d="m 165.01093,160.07415 c -0.44206,1.51304 -0.48801,3.11427 -0.53675,4.68025 -0.026,1.1411 -0.009,2.2822 0.0139,3.42311 0.0172,0.6237 0.0199,1.2473 0.009,1.87108 -0.0181,0.8888 -0.0242,1.77764 -0.0141,2.66655 0.0131,0.7218 0.0118,1.44369 0.018,2.16556 0.005,0.57202 0.008,1.14406 0.009,1.71609 7.9e-4,0.53425 7.9e-4,1.06849 7.9e-4,1.60273 -2e-5,0.35565 -1e-5,0.1778 -3e-5,0.53353 0,0 -3.48731,1.77687 -3.48731,1.77687 v 0 c -2e-5,-0.3557 -1e-5,-0.17787 -3e-5,-0.53349 -2e-5,-0.53449 -1.1e-4,-1.06897 7.9e-4,-1.60346 0.001,-0.57501 0.003,-1.15003 0.009,-1.72503 0.006,-0.72795 0.005,-1.45592 0.0179,-2.18379 0.01,-0.88354 0.004,-1.76702 -0.0164,-2.65041 -0.0125,-0.62682 -0.0135,-1.25361 0.005,-1.8804 0.0309,-1.17308 0.0787,-2.34581 0.14124,-3.51762 0.0787,-1.55302 0.11747,-3.11031 0.28418,-4.65721 0,0 3.54637,-1.68436 3.54637,-1.68436 z"
       inkscape:connector-curvature="0" />
    <path
       style="opacity:1;fill:#0000ff;fill-opacity:1;stroke:#000000;stroke-width:1;stroke-linejoin:round;stroke-miterlimit:4;stroke-dasharray:none;stroke-opacity:1"
       id="path4721"
       d="m 161.82557,61.707066 c 0.20794,0.02719 0.38942,-0.04798 0.57013,-0.144404 0.0792,-0.04226 0.30895,-0.18287 0.23093,-0.138502 -3.09663,1.760884 -4.08268,2.416636 -2.80873,1.580023 0.63839,-0.441896 1.14175,-1.033875 1.66429,-1.599819 0.45685,-0.573458 0.97153,-1.075981 1.54781,-1.527185 1.34308,-1.056336 2.87857,-1.777024 4.39262,-2.594997 0.12629,-0.06823 0.27505,-0.0828 0.4099,-0.131971 0.31462,-0.114723 0.37517,-0.157737 0.66506,-0.308599 0.55591,-0.222319 1.10141,-0.443053 1.64664,-0.690687 0.0901,-0.03268 0.18014,-0.06536 0.27021,-0.09804 0,0 -3.07206,2.415477 -3.07206,2.415477 v 0 c -0.0854,0.0374 -0.17085,0.0748 -0.25627,0.112207 -0.53445,0.248179 -1.10133,0.412149 -1.62724,0.680524 -0.70168,0.298339 0.0717,-0.02463 -0.66677,0.264938 -0.12842,0.05036 -0.50029,0.229515 -0.38279,0.157234 5.28029,-3.248454 3.28434,-2.017321 2.20444,-1.236319 -0.57045,0.430784 -1.11977,0.865564 -1.54544,1.449518 -0.51306,0.585933 -1.04893,1.158332 -1.63215,1.675582 -1.39935,1.116833 -2.98915,2.381784 -4.81707,2.464676 0,0 3.20649,-2.329654 3.20649,-2.329654 z"
       inkscape:connector-curvature="0" />
    <path
       style="opacity:1;fill:#0000ff;fill-opacity:1;stroke:#000000;stroke-width:1;stroke-linejoin:round;stroke-miterlimit:4;stroke-dasharray:none;stroke-opacity:1"
       id="path4723"
       d="m 158.62492,56.318599 c -0.22608,1.064675 -0.25775,2.159513 -0.29932,3.243591 -0.0436,1.368231 -0.0272,2.737434 -0.0183,4.106068 0.0475,0.815052 -0.0236,1.641848 0.0743,2.453352 0.17752,0.371306 0.29404,0.765969 0.44482,1.14736 0.0293,0.0396 0.0586,0.07919 0.0879,0.118782 0,0 -3.39833,1.995927 -3.39833,1.995927 v 0 c -0.0422,-0.06536 -0.0844,-0.13072 -0.1266,-0.196077 -0.16563,-0.413465 -0.29129,-0.843643 -0.46838,-1.253543 -0.0894,-0.843659 0.0329,-1.698313 0.008,-2.544982 0.0119,-1.376807 0.0335,-2.753493 0.0454,-4.130297 0.0144,-1.070599 0.0293,-2.14177 0.11114,-3.209811 0,0 3.53935,-1.73037 3.53935,-1.73037 z"
       inkscape:connector-curvature="0" />
    <path
       style="opacity:1;fill:#0000ff;fill-opacity:1;stroke:#000000;stroke-width:1;stroke-linejoin:round;stroke-miterlimit:4;stroke-dasharray:none;stroke-opacity:1"
       id="path4725"
       d="m 169.8784,51.258803 c 0.0504,1.276223 0.0555,2.554007 0.24849,3.818408 0.23277,0.974884 0.36317,1.962346 0.4508,2.959214 0.0571,0.672465 0.0742,1.347195 0.0813,2.021734 -0.0727,0.624951 0.0754,1.198123 0.25062,1.789123 0.16884,0.54732 0.23144,1.115491 0.26571,1.684586 0,0 -3.47756,1.794312 -3.47756,1.794312 v 0 c -0.0225,-0.542187 -0.0634,-1.085734 -0.21259,-1.610392 -0.1766,-0.621755 -0.37495,-1.225158 -0.3069,-1.883293 0.004,-0.674582 0.0108,-1.349537 -0.0184,-2.023714 -0.055,-0.998548 -0.19632,-1.985097 -0.3711,-2.969582 -0.17271,-1.249797 -0.16434,-2.514444 -0.37811,-3.758796 0,0 3.4678,-1.8216 3.4678,-1.8216 z"
       inkscape:connector-curvature="0" />
    <text
       xml:space="preserve"
       style="font-style:normal;font-weight:normal;font-size:10.58333302px;line-height:1.25;font-family:sans-serif;letter-spacing:0px;word-spacing:0px;fill:#000000;fill-opacity:1;stroke:none;stroke-width:0.26458332"
       x="34.477768"
       y="113.38583"
       id="text4729"><tspan
         sodipodi:role="line"
         id="tspan4727"
         x="34.477768"
         y="113.38583"
         style="stroke-width:0.26458332">1m</tspan></text>
    <text
       xml:space="preserve"
       style="font-style:normal;font-weight:normal;font-size:10.58333302px;line-height:1.25;font-family:sans-serif;letter-spacing:0px;word-spacing:0px;fill:#000000;fill-opacity:1;stroke:none;stroke-width:0.26458332"
       x="115.99497"
       y="180.47049"
       id="text4733"><tspan
         sodipodi:role="line"
         id="tspan4731"
         x="115.99497"
         y="180.47049"
         style="stroke-width:0.26458332">1m</tspan></text>
    <text
       xml:space="preserve"
       style="font-style:normal;font-weight:normal;font-size:10.58333302px;line-height:1.25;font-family:sans-serif;letter-spacing:0px;word-spacing:0px;fill:#000000;fill-opacity:1;stroke:none;stroke-width:0.26458332"
       x="158.22356"
       y="50.577496"
       id="text4737"><tspan
         sodipodi:role="line"
         id="tspan4735"
         x="158.22356"
         y="50.577496"
         style="stroke-width:0.26458332">0.1m</tspan></text>
  </g>
</svg>
